<?xml version="1.0" encoding="iso-8859-1"?>
<!-- Generator: Adobe Illustrator 19.0.0, SVG Export Plug-In . SVG Version: 6.00 Build 0)  -->
<svg version="1.1" id="Capa_1" xmlns="http://www.w3.org/2000/svg" xmlns:xlink="http://www.w3.org/1999/xlink" x="0px" y="0px"
	 viewBox="0 0 480 480" style="enable-background:new 0 0 480 480;" xml:space="preserve">
<g>
	<g>
		<path d="M472,64H8c-4.424,0-8,3.576-8,8v224c0,4.424,3.576,8,8,8h464c4.424,0,8-3.576,8-8V72C480,67.576,476.424,64,472,64z
			 M464,288H16V80h448V288z"/>
	</g>
</g>
<g>
	<g>
		<rect x="32" y="96" width="112" height="16"/>
	</g>
</g>
<g>
	<g>
		<rect x="32" y="128" width="240" height="16"/>
	</g>
</g>
<g>
	<g>
		<path d="M440,160H40c-4.424,0-8,3.576-8,8v32c0,4.424,3.576,8,8,8h400c4.424,0,8-3.576,8-8v-32C448,163.576,444.424,160,440,160z
			 M432,192H48v-16h384V192z"/>
	</g>
</g>
<g>
	<g>
		<path d="M440,224H312c-4.424,0-8,3.576-8,8v32c0,4.424,3.576,8,8,8h128c4.424,0,8-3.576,8-8v-32C448,227.576,444.424,224,440,224z
			 M432,256H320v-16h112V256z"/>
	</g>
</g>
<g>
	<g>
		<path d="M476.8,377.6l-32-24c-1.384-1.04-3.064-1.6-4.8-1.6H65.472c3.312-9.288,12.112-16,22.528-16h104v-16H88
			c-19.312,0-35.472,13.768-39.192,32H8c-4.424,0-8,3.576-8,8v48c0,4.424,3.576,8,8,8h48h384c1.736,0,3.416-0.56,4.8-1.6l32-24
			c2.016-1.504,3.2-3.88,3.2-6.4C480,381.48,478.816,379.112,476.8,377.6z M48,400H16v-32h32V400z M437.336,400H64v-32h373.336
			l21.328,16L437.336,400z"/>
	</g>
</g>
<g>
</g>
<g>
</g>
<g>
</g>
<g>
</g>
<g>
</g>
<g>
</g>
<g>
</g>
<g>
</g>
<g>
</g>
<g>
</g>
<g>
</g>
<g>
</g>
<g>
</g>
<g>
</g>
<g>
</g>
</svg>
