<svg id="Layer_1" enable-background="new 0 0 25 25" height="512" viewBox="0 0 25 25" width="512" xmlns="http://www.w3.org/2000/svg"><g><path d="m.9 13.3 3.8 3c.3.2.7.3 1.1.1.3-.2.6-.5.6-.9v-1.3h2.5c.6 0 1-.5 1-1v-1.5c0-.5-.4-1-1-1h-2.6v-1.2c0-.4-.2-.7-.6-.9-.3-.2-.7-.1-1 .1l-3.8 3c-.2.2-.4.5-.4.8s.1.6.4.8z"/><path d="m19.3 16.4c.1.1.3.1.4.1.2 0 .4-.1.6-.2l3.8-3c.2-.2.4-.5.4-.8s-.1-.6-.4-.8l-3.8-3c-.3-.2-.7-.3-1.1-.1s-.6.5-.6.9v1.3h-2.5c-.6 0-1 .5-1 1v1.5c0 .5.4 1 1 1h2.5v1.3c.1.3.3.7.7.8z"/><path d="m11.8 9.8h1.5c.6 0 1-.4 1-1v-2.5h1.3c.4 0 .7-.2.9-.6s.1-.8-.1-1.1l-3-3.8c-.4-.5-1.2-.5-1.6 0l-3 3.8c-.4.4-.4.8-.2 1.1s.5.6.9.6h1.3v2.5c0 .5.4 1 1 1z"/><path d="m11.7 24.1c.4.5 1.2.5 1.6 0l3-3.8c.2-.3.3-.7.1-1.1-.2-.3-.5-.6-.9-.6h-1.3v-2.5c0-.6-.4-1-1-1h-1.5c-.6 0-1 .4-1 1v2.5h-1.2c-.4 0-.7.2-.9.6s-.1.8.1 1.1z"/></g></svg>