<svg height="512" viewBox="0 0 64 64" width="512" xmlns="http://www.w3.org/2000/svg"><g id="Layer_29" data-name="Layer 29"><path d="m2 18h60v32h-60z" fill="#e7e4dd"/><path d="m2 18h6v32h-6z" fill="#669e4f"/><path d="m2 18v32h3v-32z" fill="#78b75b"/><circle cx="46" cy="52" fill="#d5cec2" r="10"/><path d="m32 22h24v4h-24z" fill="#78b75b"/><circle cx="20" cy="30" fill="#f2c351" r="8"/><path d="m22 29h-1v-2h1v1h2v-1a2 2 0 0 0 -2-2h-1v-1h-2v1h-1a2 2 0 0 0 -2 2v2a2 2 0 0 0 2 2h1v2h-1v-1h-2v1a2 2 0 0 0 2 2h1v1h2v-1h1a2 2 0 0 0 2-2v-2a2 2 0 0 0 -2-2zm-4 0v-2h1v2zm4 4h-1v-2h1z" fill="#f7d881"/><path d="m42.675 52.722 1.109 1.069 5.541-5.348a1.606 1.606 0 0 1 2.216 0 1.476 1.476 0 0 1 0 2.139l-5.866 5.662a2.724 2.724 0 0 1 -1.891.756 2.726 2.726 0 0 1 -1.892-.756l-1.433-1.383a1.476 1.476 0 0 1 0-2.139 1.606 1.606 0 0 1 2.216 0z" fill="#78b75b"/><g fill="#cbc3b6"><path d="m50.2 28.999h6.799v1.999h-6.799z"/><path d="m31 28.999h14v1.999h-14z"/><path d="m31 32.999h26v1.999h-26z"/><path d="m31 36.999h12v1.999h-12z"/><path d="m45 36.999h12v1.999h-12z"/><path d="m12.446 46.893-.894-1.793 2.817-1.4a2.833 2.833 0 0 1 3.274.533.835.835 0 0 0 1.054.1l.729-.486a2.83 2.83 0 0 1 3.147 0l.9.6a.833.833 0 0 0 .964-.026l2.429-1.821a3.018 3.018 0 0 1 1.8-.6h3.334v2h-3.334a1 1 0 0 0 -.6.2l-2.427 1.82a2.842 2.842 0 0 1 -3.275.091l-.9-.6a.825.825 0 0 0 -.927 0l-.73.489a2.848 2.848 0 0 1 -3.578-.354.84.84 0 0 0 -.966-.158z"/></g><path d="m30.172 5.101h5.657v19.799h-5.657z" fill="#d5cec2" transform="matrix(.707 -.707 .707 .707 -.941 27.728)"/><path d="m42 20 8 8-4 4-8-8" fill="#a8b0bc"/><path d="m50 28 3 5-2 2-5-3" fill="#c1c8d1"/><path d="m52.499 33.378h2.001v4.243h-2.001z" fill="#d5cec2" transform="matrix(.707 -.707 .707 .707 -9.432 48.228)"/><path d="m28 6-3.172-3.172a2.828 2.828 0 0 0 -2-.828 2.828 2.828 0 0 0 -2.828 2.828 2.828 2.828 0 0 0 .828 2l3.172 3.172" fill="#8892a0"/><path d="m62 17h-21.586l-14.879-14.879a3.822 3.822 0 0 0 -5.515 5.291 15.341 15.341 0 0 0 3.654 9.588h-21.674a1 1 0 0 0 -1 1v32a1 1 0 0 0 1 1h33.051c-.03.33-.051.662-.051 1a11 11 0 0 0 22 0c0-.338-.021-.67-.051-1h5.051a1 1 0 0 0 1-1v-32a1 1 0 0 0 -1-1zm-10.259 15.845-.9.9-3.228-1.945 2.187-2.187zm-5.327-9.845h8.586v2h-6.586zm2.172 5-2.586 2.586-6.586-6.586 2.586-2.586zm-23.172-18 2.586-2.586 12.586 12.586-2.586 2.586zm12.172 15h-4.586v-2h2.586zm-14.757-22a1.819 1.819 0 0 1 1.293.535l2.464 2.465-2.586 2.586-2.465-2.465a1.829 1.829 0 0 1 1.294-3.121zm3.121 13.535a13.389 13.389 0 0 1 -3.684-6.855l1.027 1.027 6.293 6.293h-3.172zm-22.95 2.465h4v30h-4zm43 42a9 9 0 1 1 9-9 9.01 9.01 0 0 1 -9 9zm15-12h-4.426a10.988 10.988 0 0 0 -21.148 0h-26.426v-30h16.586l1.707 1.707 1.414-1.414-.293-.293h3.172l2 2h-1.586a1 1 0 0 0 -1 1v4a1 1 0 0 0 1 1h7.586l2 2h-10.586v2h12.586l1.707 1.707a1.025 1.025 0 0 0 .192.15l.238.143h-14.723v2h18.056l1.429.857a1 1 0 0 0 1.222-.15l.293-.293 1.586 1.586h-8.586v2h12v-2h-2l.707-.707-1.293-1.293h2.586v-2h-3.012a.986.986 0 0 0 -.131-.515l-.891-1.485h4.034v-2h-5.234l-.909-1.515a.993.993 0 0 0 -.15-.192l-.293-.293h5.586a1 1 0 0 0 1-1v-4a1 1 0 0 0 -1-1h-11.586l-2-2h18.586z"/><path d="m20 39a9 9 0 1 0 -9-9 9.01 9.01 0 0 0 9 9zm0-16a7 7 0 1 1 -7 7 7.008 7.008 0 0 1 7-7z"/><path d="m18 35h1v1h2v-1h1a2 2 0 0 0 2-2v-2a2 2 0 0 0 -2-2h-1v-2h1v1h2v-1a2 2 0 0 0 -2-2h-1v-1h-2v1h-1a2 2 0 0 0 -2 2v2a2 2 0 0 0 2 2h1v2h-1v-1h-2v1a2 2 0 0 0 2 2zm0-6v-2h1v2zm3 2h1v2h-1z"/><path d="m48.63 47.724-4.846 4.676-.414-.4a2.619 2.619 0 0 0 -3.606 0 2.477 2.477 0 0 0 0 3.578l1.436 1.387a3.747 3.747 0 0 0 5.172 0l5.864-5.665a2.475 2.475 0 0 0 0-3.578 2.618 2.618 0 0 0 -3.606.002zm2.217 2.138-5.866 5.662a1.809 1.809 0 0 1 -2.4 0l-1.433-1.383a.477.477 0 0 1 0-.7.6.6 0 0 1 .414-.162.591.591 0 0 1 .413.162l1.108 1.07a1 1 0 0 0 1.389 0l5.542-5.348a.605.605 0 0 1 .826 0 .475.475 0 0 1 0 .7z"/><path d="m31 37h12v2h-12z"/><path d="m26.867 42.6-2.428 1.82a.839.839 0 0 1 -.965.026l-.9-.6a2.83 2.83 0 0 0 -3.147 0l-.728.486a.838.838 0 0 1 -1.055-.1 2.832 2.832 0 0 0 -3.274-.532l-2.816 1.408.894 1.79 2.817-1.409a.837.837 0 0 1 .965.157 2.846 2.846 0 0 0 3.578.354l.728-.486a.834.834 0 0 1 .928 0l.9.6a2.841 2.841 0 0 0 3.274-.09l2.429-1.824a1.006 1.006 0 0 1 .6-.2h3.333v-2h-3.333a3.012 3.012 0 0 0 -1.8.6z"/></g></svg>