<svg clip-rule="evenodd" fill-rule="evenodd" stroke-linejoin="round" stroke-miterlimit="2" viewBox="0 0 32 32" xmlns="http://www.w3.org/2000/svg" xmlns:serif="http://www.serif.com/"><g transform="translate(-96 -192)"><path d="m126 199.5c0-.219-.142-.412-.35-.477-4.54-1.424-9.138-1.342-13.783-.005-4.556 1.228-8.971 1.308-13.22.004-.152-.047-.317-.018-.444.076-.128.094-.203.243-.203.402v17c0 .22.144.414.355.478 4.509 1.371 9.106 1.298 13.778.004.002-.001.003-.001.005-.001 4.437-1.274 8.844-1.356 13.214-.003.152.047.317.019.445-.076.128-.094.203-.243.203-.402z" fill="#98dda0"/><path d="m112 198.98c-.044.013-.089.025-.133.038-4.556 1.228-8.971 1.308-13.22.004-.152-.047-.317-.018-.444.076-.128.094-.203.243-.203.402v17c0 .22.144.414.355.478 4.466 1.358 9.019 1.299 13.645.04z" fill="#6dce79"/><circle cx="112" cy="207.982" fill="#44994e" r="5"/><g transform="matrix(.85 0 0 1 16.05 0)"><circle cx="112" cy="207.982" fill="#6cbe76" r="5"/></g><g transform="translate(0 .2)"><path d="m119 202h4c.276 0 .5-.224.5-.5s-.224-.5-.5-.5h-4c-.276 0-.5.224-.5.5s.224.5.5.5z" fill="#6cbe76"/></g><path d="m119 202h4c.276 0 .5-.224.5-.5s-.224-.5-.5-.5h-4c-.276 0-.5.224-.5.5s.224.5.5.5z" fill="#44994e"/><g transform="translate(0 .2)"><path d="m101 215h4c.276 0 .5-.224.5-.5s-.224-.5-.5-.5h-4c-.276 0-.5.224-.5.5s.224.5.5.5z" fill="#6cbe76"/></g><path d="m101 215h4c.276 0 .5-.224.5-.5s-.224-.5-.5-.5h-4c-.276 0-.5.224-.5.5s.224.5.5.5z" fill="#44994e"/><path d="m112 212.904v-9.844c-.243-.051-.494-.078-.75-.078-2.346 0-4.25 2.241-4.25 5 0 2.76 1.904 5 4.25 5 .256 0 .507-.026.75-.078z" fill="#9ad6a1"/><path d="m111.5 205.037c-.875.198-1.5.901-1.5 1.695 0 .795.625 1.498 1.5 1.695v1.457c-.294-.125-.5-.359-.5-.652 0-.276-.224-.5-.5-.5s-.5.224-.5.5c0 .795.625 1.498 1.5 1.695v.055c0 .276.224.5.5.5s.5-.224.5-.5v-.055c.875-.197 1.5-.9 1.5-1.695 0-.794-.625-1.497-1.5-1.695v-1.456c.294.124.5.358.5.651 0 .276.224.5.5.5s.5-.224.5-.5c0-.794-.625-1.497-1.5-1.695v-.055c0-.276-.224-.5-.5-.5s-.5.224-.5.5zm1 3.544v1.303c.294-.125.5-.359.5-.652s-.206-.527-.5-.651zm-1-2.5c-.294.124-.5.358-.5.651s.206.527.5.652z" fill="#fff"/><path d="m112 204.482c-.276 0-.5.224-.5.5v.055c-.875.198-1.5.901-1.5 1.695 0 .795.625 1.498 1.5 1.695v1.457c-.294-.125-.5-.359-.5-.652 0-.276-.224-.5-.5-.5s-.5.224-.5.5c0 .795.625 1.498 1.5 1.695v.055c0 .276.224.5.5.5zm-.5 1.599c-.294.124-.5.358-.5.651s.206.527.5.652z" fill="#dcdbdb"/></g></svg>